<?xml version="1.0" encoding="utf-8"?>
<!-- Generator: Adobe Illustrator 24.0.3, SVG Export Plug-In . SVG Version: 6.00 Build 0)  -->
<!DOCTYPE svg PUBLIC "-//W3C//DTD SVG 1.1//EN" "http://www.w3.org/Graphics/SVG/1.1/DTD/svg11.dtd" [
	<!ENTITY ns_extend "http://ns.adobe.com/Extensibility/1.0/">
	<!ENTITY ns_ai "http://ns.adobe.com/AdobeIllustrator/10.0/">
	<!ENTITY ns_graphs "http://ns.adobe.com/Graphs/1.0/">
	<!ENTITY ns_vars "http://ns.adobe.com/Variables/1.0/">
	<!ENTITY ns_imrep "http://ns.adobe.com/ImageReplacement/1.0/">
	<!ENTITY ns_sfw "http://ns.adobe.com/SaveForWeb/1.0/">
	<!ENTITY ns_custom "http://ns.adobe.com/GenericCustomNamespace/1.0/">
	<!ENTITY ns_adobe_xpath "http://ns.adobe.com/XPath/1.0/">
]>
<svg version="1.1" id="Layer_1" xmlns:x="&ns_extend;" xmlns:i="&ns_ai;" xmlns:graph="&ns_graphs;"
	 xmlns="http://www.w3.org/2000/svg" xmlns:xlink="http://www.w3.org/1999/xlink" x="0px" y="0px" viewBox="0 0 321.4 887.5"
	 style="enable-background:new 0 0 321.4 887.5;" xml:space="preserve">
<style type="text/css">
	.st0{fill:#000000;stroke:#0000;stroke-width:11.4522;stroke-miterlimit:10;}
</style>
<metadata>
	<sfw  xmlns="&ns_sfw;">
		<slices></slices>
		<sliceSourceBounds  bottomLeftOrigin="true" height="887.5" width="321.4" x="0" y="0.2"></sliceSourceBounds>
	</sfw>
</metadata>
<g transform="matrix(.21599 0 0 .21546 -250.44 -1202.6)">
	<path class="st0" d="M2002,7851.1c-61,17-116,55-167,113c-51,59-76,124-76,194c0,44,15,94,44,147c29,54,73,93,130,118
		c19,4,28,14,28,28c0,5-7,10-24,14c-91-23-166-72-224-145c-58-74-88-158-90-254c3-103,34-199,93-287c60-89,137-152,231-189l-69-355
		c-154,128-279,261-376,401c-97,139-147,290-151,453c2,73,17,144,45,212c28,69,70,131,126,188c113,113,260,172,439,178
		c61-4,126-15,196-33L2002,7851.1z M2074,7841.1l156,769c154-62,231-197,231-403c-9-69-29-131-63-186c-33-56-77-100-133-132
		S2146,7841.1,2074,7841.1z M1869,6801.1c33-20,71-55,112-104c41-48,81-105,119-169c39-65,70-131,93-198c23-66,34-129,34-187
		c0-25-2-50-7-72c-4-36-15-64-34-83c-19-18-43-28-73-28c-60,0-114,37-162,111c-37,64-68,140-90,226c-23,87-36,173-38,260
		C1828,6656.1,1844,6737.1,1869,6801.1z M1806,6859.1c-45-162-70-327-75-495c1-108,12-209,33-303c20-94,49-175,87-245
		c37-70,80-123,128-159c43-32,74-49,91-49c13,0,24,5,34,14s23,24,39,44c119,169,179,373,179,611c0,113-15,223-45,333
		c-29,109-72,213-129,310c-58,98-126,183-205,256l81,394c44-5,74-9,91-9c76,0,144,16,207,48s117,75,161,130c44,54,78,116,102,186
		c23,70,36,143,36,219c0,118-31,226-93,323s-155,168-280,214c8,49,22,120,43,211c20,92,35,165,45,219s14,106,14,157
		c0,79-19,149-57,211c-39,62-91,110-157,144c-65,34-137,51-215,51c-110,0-206-31-288-92c-82-62-126-145-130-251c3-47,14-91,34-133
		s47-76,82-102c34-27,75-41,122-44c39,0,76,11,111,32c34,22,62,51,83,88c20,37,31,78,31,122c0,59-20,109-60,150s-91,62-152,62h-23
		c39,60,103,91,192,91c45,0,91-10,137-28c47-19,86-44,119-76s55-66,64-102c17-41,25-98,25-169c0-48-5-96-14-144c-9-47-23-110-42-188
		c-19-77-33-137-41-178c-60,15-122,23-187,23c-109,0-212-22-309-67s-182-107-256-187c-73-80-130-170-171-272c-40-101-61-207-62-317
		c4-102,23-200,59-292c36-93,82-181,139-263s116-157,177-224C1623,7047.1,1704,6962.1,1806,6859.1z"/>
</g>
</svg>
